# xmcd
#
# Track frame offsets:
#	150
#	14847
#	26451
#	41703
#	54658
#	67843
#	82822
#	94319
#	104294
#	117497
#	129408
#	142645
#	157231
#	166613
#	178233
#	191268
#	201588
#	214193
#	223993
#	237355
#
# Disc length: 3295
#
# Revision: 1
# Processed by: cddbd v1.5.1PL0 Copyright (c) Steve Scherf et al.
# Submitted via: dBpowerAMP V4.0
# Normalized: r0:TRMNUM
#
DISCID=220cdd14
DTITLE=Various Artist - 40 Vinsæl lög frá 6. og 7. áratugnum
DYEAR=1900
DGENRE=Country
TTITLE0=40 vinsæl Óðinn Valdimarsson - Ég er komin heim
TTITLE1=40 vinsæl Ellý og Ragnar - Hvert er farið blómið blátt
TTITLE2=40 vinsæl Þorvaldur Halldórsson - Nú hugsa ég heim
TTITLE3=40 vinsæl Alfreð Clausen - Þórður sjóari
TTITLE4=40 vinsæl Erla Þorsteinsdóttir - Draumur fangans
TTITLE5=40 vinsæl Haukur Mortens - Til eru fræ
TTITLE6=40 vinsæl Ingibjörg Smith - Nú liggur vel á mér
TTITLE7=40 vinsæl Erling Ágústsson - Þú ert ungur enn
TTITLE8=40 vinsæl Ragnar Bjarnason og Jón Sig. - Út í Hamborg
TTITLE9=40 vinsæl Sigrún Jónsdóttir - Mariana
TTITLE10=40 vinsæl Helena Eyjólfsdóttir - Hvítir mávar
TTITLE11=40 vinsæl Sigurdór Sigurdórsson - Þórsmerkurljóð
TTITLE12=40 vinsæl Sigurður Ólafsson - Sjómannavalsinn
TTITLE13=40 vinsæl Jón Sigurðsson - Ó, María, mig langar heim
TTITLE14=40 vinsæl Nora Brocksted og Monn Keys - Svo ung og blíð
TTITLE15=40 vinsæl Jónas Árnason og Leikhúskvartettinn - Jón var kræfur karl
TTITLE16=40 vinsæl Tónasystur - Unnusta sjómannsins
TTITLE17=40 vinsæl Björn R Einarsson - Ef þú vilt verða mín
TTITLE18=40 vinsæl Ingibjörg Þorbergs - Nú ertu þriggja ára
TTITLE19=40 vinsæl Savanna tríóið - Suðurnesjamenn
EXTD=
EXTT0=
EXTT1=
EXTT2=
EXTT3=
EXTT4=
EXTT5=
EXTT6=
EXTT7=
EXTT8=
EXTT9=
EXTT10=
EXTT11=
EXTT12=
EXTT13=
EXTT14=
EXTT15=
EXTT16=
EXTT17=
EXTT18=
EXTT19=
PLAYORDER=
